<?xml version="1.0" encoding="utf-8"?>
<svg xmlns="http://www.w3.org/2000/svg" height="16" width="16" viewBox="0 0 32 32">
    <g>
        <path id="path1" transform="rotate(0,16,16) translate(0,0.3955078125) scale(1,1)  " fill="#000000"
              d="M15.999001,0C24.835999,-1.6984995E-07 32,7.1628973 32,16.000827 32,23.066802 27.419998,29.059728 21.067001,31.179702 20.255001,31.335708 19.966999,30.837726 19.966999,30.410728 19.966999,29.885709 19.987,28.159711 19.987,26.020753 19.987,24.528764 19.476002,23.55276 18.901001,23.058807 22.465,22.661777 26.206001,21.309798 26.206001,15.162823 26.206001,13.416867 25.585999,11.987865 24.562,10.868918 24.726002,10.464869 25.275002,8.8379299 24.402,6.6349479 24.402,6.6349479 23.061001,6.2059356 20.006001,8.2748863 18.728001,7.9209468 17.359001,7.7439462 16.000999,7.7369272 14.640999,7.7439462 13.271999,7.9209468 11.994999,8.2748863 8.9379997,6.2059356 7.5950012,6.6349479 7.5950012,6.6349479 6.7249985,8.8379299 7.2739983,10.464869 7.4379997,10.868918 6.4160004,11.987865 5.7919998,13.416867 5.7919998,15.162823 5.7919998,21.293809 9.5270004,22.666782 13.080002,23.069793 12.623001,23.47079 12.209,24.175739 12.063999,25.208749 11.152,25.618779 8.8349991,26.324767 7.4080009,23.880759 7.4080009,23.880759 6.5620003,22.344762 4.9570007,22.230811 4.9570007,22.230811 3.394001,22.211768 4.8470001,23.203763 4.8470001,23.203763 5.8950005,23.695764 6.6230011,25.544746 6.6230011,25.544746 7.5620003,28.65574 12.013,27.68773 12.02,29.023717 12.035,30.030727 12.035,30.410728 12.035,30.833697 11.743,31.327712 10.943001,31.181716 4.5839996,29.064733 0,23.067779 0,16.000827 0,7.1628973 7.1640015,-1.6984995E-07 15.999001,0z"/>
    </g>
</svg>

