<?xml version="1.0" encoding="utf-8"?>
<svg xmlns="http://www.w3.org/2000/svg" height="16" width="16" viewBox="0 0 32 32">
  <g>
    <path id="path1" transform="rotate(0,16,16) translate(3.79650020599365,0) scale(1,1)  " fill="#022C11" d="M11.473017,8.5119629L12.080011,8.5119629 12.080011,9.0849609C12.514001,11.281982 14.39199,12.654968 14.39199,12.654968 19.657003,17.553955 15.067009,22.72699 15.067009,22.72699 19.119009,14.554993 12.080011,13.25 12.080011,13.25L12.080011,24.626953 12.084009,24.690979C12.110987,25.826965 10.885004,27.14801 9.0760143,27.822998 7.0089992,28.596008 4.9640172,28.234009 4.5079935,27.014954 4.0519999,25.794983 5.3590062,24.180969 7.4259909,23.408997 8.1360129,23.143005 8.8439892,23.010986 9.4859875,23.002991 10.251002,22.992004 10.922998,23.156982 11.391016,23.47699L11.473017,23.537964z M2.2879935,2.4169922L2.2879935,29.58197 22.125995,29.58197 22.125995,8.4989624 15.839988,8.4989624 15.839988,2.4169922z M0,0L15.839988,0 17.133993,0 22.684009,5.43396 24.406999,7.1229858 24.406999,32 0,32z" />
  </g>
</svg>

