<?xml version="1.0" encoding="UTF-8" standalone="no"?>
<svg width="16" height="16" viewBox="0 0 32 32" version="1.1" xmlns="http://www.w3.org/2000/svg" xmlns:xlink="http://www.w3.org/1999/xlink" xml:space="preserve" xmlns:serif="http://www.serif.com/" style="fill-rule:evenodd;clip-rule:evenodd;stroke-linejoin:round;stroke-miterlimit:2;">
    <g transform="matrix(1.52727,0,0,1.40494,-2.34326,8.01528)">
        <path d="M3.125,10.147L3.125,8.865L1.828,8.865L1.828,2.283L3.125,2.283L3.125,0.986L7.143,0.986L7.143,2.283L8.453,2.283L8.453,8.865L7.143,8.865L7.143,10.147L3.125,10.147ZM3.267,8.722L7,8.722L7,2.425L3.267,2.425L3.267,8.722Z" style="fill:rgb(12,52,73);fill-rule:nonzero;"/>
    </g>
    <g transform="matrix(1.52727,0,0,1.40494,-4.65483,8.01528)">
        <path d="M11.474,10.147L11.474,8.865L10.177,8.865L10.177,7.426L11.616,7.426L11.616,8.722L15.349,8.722L15.349,6.272L11.474,6.272L11.474,4.99L10.177,4.99L10.177,2.283L11.474,2.283L11.474,0.986L15.491,0.986L15.491,2.283L16.802,2.283L16.802,3.707L15.349,3.707L15.349,2.425L11.616,2.425L11.616,4.861L15.491,4.861L15.491,6.129L16.802,6.129L16.802,8.865L15.491,8.865L15.491,10.147L11.474,10.147Z" style="fill:rgb(1,79,8);fill-rule:nonzero;"/>
    </g>
    <g transform="matrix(1.52727,0,0,1.40494,-6.92186,8.01528)">
        <path d="M19.822,10.147L19.822,8.865L18.526,8.865L18.526,7.426L19.965,7.426L19.965,8.722L23.697,8.722L23.697,6.272L19.822,6.272L19.822,4.99L18.526,4.99L18.526,2.283L19.822,2.283L19.822,0.986L23.84,0.986L23.84,2.283L25.151,2.283L25.151,3.707L23.697,3.707L23.697,2.425L19.965,2.425L19.965,4.861L23.84,4.861L23.84,6.129L25.151,6.129L25.151,8.865L23.84,8.865L23.84,10.147L19.822,10.147Z" style="fill:rgb(67,41,41);fill-rule:nonzero;"/>
    </g>
    <g transform="matrix(0.845428,0,0,0.845428,5.01177,0.371558)">
        <clipPath id="_clip1">
            <rect x="1.928" y="1.04" width="5.241" height="9.166"/>
        </clipPath>
        <g clip-path="url(#_clip1)">
            <path d="M7.1,11.5L7.1,10.204L5.818,10.204L5.818,8.908L4.507,8.908L4.507,7.625L3.225,7.625L3.225,6.329L1.928,6.329L1.928,4.918L3.225,4.918L3.225,3.622L4.507,3.622L4.507,2.325L5.818,2.325L5.818,1.043L7.1,1.043L7.1,-0.253L8.553,-0.253L8.553,1.186L7.242,1.186L7.242,2.468L5.96,2.468L5.96,3.764L4.649,3.764L4.649,5.047L3.367,5.047L3.367,6.186L4.649,6.186L4.649,7.483L5.96,7.483L5.96,8.765L7.242,8.765L7.242,10.062L8.553,10.062L8.553,11.5L7.1,11.5Z" style="fill:rgb(120,0,102);fill-rule:nonzero;"/>
        </g>
    </g>
    <g transform="matrix(-0.845428,0,0,0.845428,26.7709,21.6761)">
        <clipPath id="_clip2">
            <rect x="1.928" y="1.04" width="5.241" height="9.166"/>
        </clipPath>
        <g clip-path="url(#_clip2)">
            <path d="M7.1,11.5L7.1,10.204L5.818,10.204L5.818,8.908L4.507,8.908L4.507,7.625L3.225,7.625L3.225,6.329L1.928,6.329L1.928,4.918L3.225,4.918L3.225,3.622L4.507,3.622L4.507,2.325L5.818,2.325L5.818,1.043L7.1,1.043L7.1,-0.253L8.553,-0.253L8.553,1.186L7.242,1.186L7.242,2.468L5.96,2.468L5.96,3.764L4.649,3.764L4.649,5.047L3.367,5.047L3.367,6.186L4.649,6.186L4.649,7.483L5.96,7.483L5.96,8.765L7.242,8.765L7.242,10.062L8.553,10.062L8.553,11.5L7.1,11.5Z" style="fill:rgb(120,0,102);fill-rule:nonzero;"/>
        </g>
    </g>
</svg>
