<?xml version="1.0" encoding="utf-8"?>
<svg xmlns="http://www.w3.org/2000/svg" height="16" width="16" viewBox="0 0 32 32">
  <g>
    <path id="path1" transform="rotate(0,16,16) translate(0,0.753999710082995) scale(1,1)  " fill="#022C11" d="M5.598999,13.94499L14.597,16.546004 11.858002,18.063002 15.675995,21.73399 13.854996,23.628002 10.037003,19.955992 8.5480042,22.835995z M3.6299973,8.5109999L3.6299973,26.861996 28.369995,26.861996 28.369995,8.5109999z M14.395996,3.1860041C13.695007,3.1860041 13.126007,3.7550042 13.126007,4.4579918 13.126007,5.158004 13.695007,5.7270043 14.395996,5.7270043 15.098999,5.7270043 15.667007,5.158004 15.667007,4.4579918 15.667007,3.7550042 15.098999,3.1860041 14.395996,3.1860041z M9.6380005,3.1060023C8.935997,3.1060023 8.3670044,3.6750023 8.3670044,4.3769982 8.3670044,5.0769951 8.935997,5.6459954 9.6380005,5.6459954 10.339005,5.6459954 10.907997,5.0769951 10.907997,4.3769982 10.907997,3.6750023 10.339005,3.1060023 9.6380005,3.1060023z M4.8779984,3.0249934C4.1760025,3.0249934 3.6080017,3.5950005 3.6080017,4.2960045 3.6080017,4.9969933 4.1760025,5.5650017 4.8779984,5.5650017 5.5800018,5.5650017 6.1480026,4.9969933 6.1480026,4.2960045 6.1480026,3.5950005 5.5800018,3.0249934 4.8779984,3.0249934z M3.4349976,0L28.565994,0C30.462006,-2.2529366E-07,32,1.537994,32,3.4349966L32,27.057003C32,28.953991,30.462006,30.492001,28.565994,30.492001L3.4349976,30.492001C1.538002,30.492001,0,28.953991,0,27.057003L0,3.4349966C0,1.537994,1.538002,-2.2529366E-07,3.4349976,0z" />
  </g>
</svg>